<svg width="400" height="400" viewBox="0 0 400 400" fill="none" xmlns="http://www.w3.org/2000/svg">
<rect width="400" height="400" fill="#010101"/>
<path d="M254.469 147.306C250.211 141.546 224.215 132.691 220.807 135.348C220.807 135.348 224.164 108.2 221.817 91.9459C219.521 76.0165 228.901 82.2222 233.159 87.9749L233.444 88.3582C237.601 93.945 250.525 111.314 255.115 142.505C255.776 147.004 255.159 148.235 254.469 147.306Z" fill="#CFFE25"/>
<path d="M175.567 135.792C174.244 135.787 161.786 135.736 152.627 142.874C151.349 143.319 150.927 142.436 150.927 142.436C150.927 142.436 149.648 111 148.37 99.4869C147.091 87.9739 153.906 91.96 156.892 95.5007C157.187 95.8507 157.564 96.2758 158.01 96.7789C162.078 101.365 171.897 112.434 177.345 132.252C178.195 135.347 176.488 135.792 175.637 135.792L175.567 135.792Z" fill="#CFFE25"/>
<path d="M151.987 219.26C151.987 219.26 159.58 190.179 176.276 170.996C184.37 161.695 189.063 152.84 177.555 150.628C166.046 148.416 145.172 171.879 150.28 217.048C150.28 217.048 150.279 217.044 150.28 217.048C150.3 217.221 150.739 220.985 151.987 219.26Z" fill="#CFFE25"/>
<path d="M163.225 217.736C163.225 217.736 171.733 205.339 183.518 199.858C189.236 197.201 192.564 190.875 186.504 187.817C180.445 184.767 163.065 194.461 162.586 216.445C162.586 216.445 162.717 217.403 163.654 216.845L163.225 217.736Z" fill="#CFFE25"/>
<path d="M251.064 221.253C245.222 232.381 219.996 240.406 219.996 240.406L219.902 240.67C218.819 241.848 219.953 242.497 219.953 242.497C245.949 249.594 265.973 231.882 265.123 221.253C265.113 221.132 265.106 220.971 265.096 220.777C265.006 218.9 264.763 213.881 261.287 211.069C260.051 210.064 257.516 210.057 257.029 211.069C254.704 215.906 252.578 219.01 251.598 220.441C251.322 220.843 251.137 221.114 251.064 221.253Z" fill="#CFFE25"/>
<path d="M230.074 249.933C230.074 249.933 247.395 253.074 254.646 247.759C255.06 247.457 256.979 245.993 260.858 242.943C261.49 242.444 263.844 242.497 264.092 244.513C264.513 247.978 263.132 251.541 262.74 252.417C259.514 259.619 241.801 264.519 229.326 251.277C229.326 251.277 228.897 250.477 229.936 250.069L230.074 249.933Z" fill="#CFFE25"/>
<path d="M132.423 196.861C139.499 204.493 142.478 216.52 142.478 216.52L142.398 215.712C142.936 216.414 143.27 215.712 143.27 215.712C148.48 198.574 138.446 186.08 133.324 186.692C128.201 187.311 128.993 193.162 132.423 196.861Z" fill="#CFFE25"/>
<path d="M177.978 250.251C177.036 251.623 176.594 251.089 176.393 250.066C176.063 249.527 176.139 248.116 176.253 247.076C176.262 246.848 176.27 246.71 176.27 246.71C176.27 246.71 176.312 246.36 176.432 245.725C176.674 243.11 181.18 202.346 226.596 203.383C231.291 203.489 242.748 200.847 245.291 197.59L245.308 197.563L245.314 197.602C245.403 198.184 246.239 205.268 236.785 216.602C231.249 223.246 217.611 228.561 215.054 228.999C212.497 229.444 187.743 236.05 177.978 250.251Z" fill="#CFFE25"/>
<path fill-rule="evenodd" clip-rule="evenodd" d="M212.736 65.9059C215.512 62.6979 219.246 61 223.555 61C224.506 61 225.494 61.0826 226.504 61.2554C235.674 62.7505 242.801 66.3642 249.609 72.9755C256.395 79.5643 262.869 89.1508 270.497 101.524C279.826 116.64 287.63 140.081 291.372 164.227C294.692 185.631 296.523 218.417 286.424 253.067C282.224 267.492 275.671 280.556 266.945 291.901C259.011 302.224 249.311 311.104 238.115 318.294C227.928 324.837 216.703 329.879 204.751 333.259C193.642 336.407 182.402 338 171.344 338C169.789 338 168.227 337.97 166.694 337.902C147.222 337.068 131.747 331.066 120.696 320.067C110.146 309.564 106.724 297.513 105.627 291.262C103.048 276.627 109.18 259.821 110.43 256.605C111.011 253.578 114.346 234.78 113.219 209.485C112.079 183.971 119.599 163.649 136.862 145.588C137.189 144.401 138.09 139.292 136.869 121.216C136.201 111.291 135.191 102.02 135.009 100.39C134.464 97.753 132.045 84.1247 137.988 75.9506C140.611 72.3444 144.461 70.2859 149.133 70.0004C149.576 69.9779 150.027 69.9629 150.477 69.9629C158.949 69.9629 168.038 74.6509 176.757 83.5161C185.12 92.0282 192.407 103.636 197.827 117.091C198.111 117.797 198.387 118.474 198.655 119.127C199.694 121.657 200.654 123.997 201.286 126.37L207.381 126.039V90.9839C207.105 88.1741 206.045 73.6667 212.736 65.9059ZM225.705 66.4694C224.95 66.3492 224.23 66.2891 223.555 66.2891C209.786 66.2891 212.496 90.7134 212.496 90.7134V126.843C212.496 130.945 210.055 131.26 209.307 131.26C209.169 131.26 209.089 131.253 209.089 131.253L196.941 131.914C196.941 128.496 195.673 125.407 193.96 121.234C193.685 120.564 193.399 119.866 193.105 119.135C182.468 92.7344 164.783 75.2594 150.47 75.2594C150.121 75.2594 149.773 75.267 149.424 75.2895C134.936 76.176 140.051 99.5261 140.051 99.5261C140.051 99.5261 145.166 144.468 140.901 148.878C128.814 161.384 118.897 177.521 118.249 202.057C121.21 204.153 131.517 213.133 130.676 236.087C130.876 240.556 129.607 246.484 129.607 246.484C129.607 246.484 128.756 250.47 128.328 246.929C126.822 234.438 120.939 229.854 118.412 228.438C117.781 246.524 115.334 258.153 115.334 258.153C115.334 258.153 108.09 275.778 110.647 290.316C111.436 294.796 113.154 300.363 116.365 305.975C119.852 307.487 124.421 308.704 127.271 306.487C132.386 302.509 131.536 295.857 131.536 295.857C131.536 295.857 121.306 287.885 120.884 284.79C120.456 281.687 121.735 279.037 125.149 278.146C128.557 277.263 143.473 277.701 148.588 281.249C153.703 284.797 145.602 290.105 145.602 290.105L137.508 294.974C137.508 294.974 134.101 296.748 137.079 303.384C140.058 310.02 154.975 317.555 171.17 314.452C171.17 314.452 177.844 313.664 186.216 310.5C192.856 305.482 201.772 297.797 208.18 288.678C213.76 280.743 222.29 278.584 224.855 285.417C227.667 292.914 217.346 308.498 192.235 315.236C190.498 315.976 188.918 316.543 187.582 316.89C177.353 319.548 152.642 325.3 133.461 307.589C133.461 307.589 129.084 313.08 120.575 312.175C128.811 322.487 143.019 331.593 166.898 332.613C168.358 332.673 169.84 332.703 171.337 332.703C212.133 332.703 264.678 309.338 281.527 251.534C299 191.611 281.955 129.923 266.189 104.364C250.423 78.8055 241.9 69.1139 225.705 66.4694Z" fill="#CFFE25"/>
</svg>
