<svg width="500" height="500" viewBox="0 0 500 500" fill="none" xmlns="http://www.w3.org/2000/svg">
<rect width="500" height="500" fill="#1A202C"/>
<path d="M196.432 187.007C207.127 178.99 221.758 179.222 222.729 179.222C223.701 179.222 225.652 178.733 224.681 175.33C217.772 151.154 204.711 138.821 201.306 134.928C197.894 131.036 190.105 126.654 191.566 139.311C193.028 151.967 194.489 186.526 194.489 186.526C194.489 186.526 194.971 187.497 196.432 187.007Z" fill="#CFFE25"/>
<path d="M274.352 178.733C278.247 175.812 307.957 185.547 312.822 191.879C313.611 192.9 314.317 191.547 313.561 186.601C308.189 151.486 292.828 132.306 288.468 126.654C283.602 120.33 272.883 113.508 275.506 131.02C278.188 148.888 274.352 178.733 274.352 178.733Z" fill="#CFFE25"/>
<path d="M195.701 270.981C195.701 270.981 204.379 239.012 223.46 217.923C232.71 207.698 238.074 197.963 224.922 195.531C211.769 193.099 187.913 218.894 193.75 268.549C193.75 268.541 194.24 272.923 195.701 270.981Z" fill="#CFFE25"/>
<path d="M224.398 378.201C224.398 378.201 246.776 365.287 259.921 347.294C266.298 338.571 276.046 336.198 278.977 343.709C282.705 353.27 266.24 374.79 226.623 379.222C226.623 379.222 223.136 379.637 224.398 378.201Z" fill="#CFFE25"/>
<path d="M208.547 269.304C208.547 269.304 218.27 255.677 231.739 249.651C238.273 246.73 242.076 239.775 235.151 236.414C228.226 233.061 208.364 243.717 207.816 267.885C207.816 267.885 207.966 268.939 209.037 268.325" fill="#DEE1CF"/>
<path d="M273.422 294.228C273.422 294.228 302.252 285.405 308.928 273.172C309.31 272.475 312.341 268.79 315.745 261.976C316.302 260.864 319.2 260.872 320.611 261.976C324.996 265.387 324.879 271.753 324.996 273.172C325.967 284.858 303.083 304.328 273.373 296.527C273.373 296.527 272.077 295.813 273.314 294.518L273.422 294.228Z" fill="#CFFE25"/>
<path d="M284.948 304.702C284.948 304.702 304.743 308.154 313.03 302.311C313.504 301.979 315.696 300.369 320.13 297.016C320.852 296.469 323.543 296.527 323.825 298.743C324.306 302.552 322.729 306.469 322.28 307.432C318.594 315.35 298.35 320.736 284.093 306.179C284.093 306.179 283.603 305.299 284.79 304.851L284.948 304.702Z" fill="#CFFE25"/>
<path d="M184.832 267.968C184.832 267.968 181.427 254.747 173.339 246.356C169.42 242.29 168.515 235.858 174.369 235.177C180.223 234.505 191.69 248.24 185.737 267.08C185.737 267.08 185.355 267.852 184.74 267.08" fill="#DEE1CF"/>
<path d="M156.492 258.075L156.002 280.467C156.002 280.467 166.456 283.77 168.665 301.398C169.155 305.291 170.126 300.909 170.126 300.909C170.126 300.909 172.078 292.144 171.098 287.281C170.118 282.417 163.791 261.968 163.791 261.968L156.492 258.075Z" fill="#DEE1CF"/>
<path d="M156.251 251.511C156.251 251.511 174.76 261.246 170.865 295.805C170.865 295.805 170.624 270.741 156.01 258.565L156.251 251.511Z" fill="#CFFE25"/>
<path d="M149.434 363.462C149.434 363.462 161.607 371.246 167.452 366.873C173.298 362.499 172.326 355.187 172.326 355.187C172.326 355.187 160.635 346.423 160.153 343.02C159.664 339.609 161.125 336.696 165.028 335.717C168.922 334.745 185.969 335.227 191.815 339.128C197.66 343.028 188.402 348.863 188.402 348.863L179.152 354.216C179.152 354.216 175.258 356.166 178.662 363.462C182.066 370.757 199.114 379.04 217.622 375.629C217.622 375.629 251.6 371.769 266.081 347.643C269.004 342.779 276.552 341.559 276.311 349.593C276.046 358.349 248.063 375.388 236.38 378.309C224.688 381.231 196.448 387.555 174.527 368.084C174.527 368.084 167.469 376.6 153.826 371.736L149.434 363.462Z" fill="#DEE1CF"/>
<path d="M302.352 247.128C302.352 247.128 302.925 255.162 290.245 266.823C283.129 273.371 266.979 277.421 264.023 277.579C261.067 277.737 237.966 290.053 225.121 304.312C222.314 307.424 223.618 300.22 223.618 300.22C223.618 300.22 227.338 252.349 280.962 253.527C286.343 253.643 299.495 250.722 302.352 247.128Z" fill="#CFFE25"/>
<path d="M302.351 247.128C302.351 247.128 303.896 255.046 292.611 268.06C286.284 275.363 270.698 281.206 267.776 281.687C264.853 282.177 236.563 289.439 225.403 305.05C222.97 308.461 223.451 301.158 223.451 301.158C223.451 301.158 228.508 260.739 281.891 255.893C287.256 255.403 299.918 251.021 302.351 247.128Z" fill="#DEE1CF"/>
<path d="M277.491 102.843C278.263 102.843 279.085 102.909 279.949 103.042C298.457 105.963 308.197 116.67 326.216 144.904C344.235 173.139 363.715 241.286 343.745 307.482C324.489 371.338 264.438 397.149 217.814 397.149C216.103 397.149 214.409 397.116 212.74 397.049C165.501 395.099 151.377 366.383 148.454 350.324C145.531 334.264 153.81 314.794 153.81 314.794C153.81 314.794 158.684 292.402 157.223 260.764C155.761 229.127 167.909 209.2 183.03 194.078C187.904 189.207 182.059 139.559 182.059 139.559C182.059 139.559 176.213 113.765 192.77 112.786C193.169 112.761 193.567 112.752 193.966 112.752C210.324 112.752 230.535 132.057 242.691 161.221C245.124 167.064 247.075 170.956 247.075 175.338L260.959 174.608C260.959 174.608 261.05 174.616 261.208 174.616C262.063 174.616 264.853 174.268 264.853 169.736C264.853 164.383 264.853 129.824 264.853 129.824C264.853 129.824 261.756 102.843 277.491 102.843ZM277.491 97C272.567 97 268.299 98.8757 265.127 102.42C257.479 110.993 258.692 127.019 259.007 130.123V168.848L252.041 169.213C251.318 166.591 250.222 164.01 249.035 161.213C248.728 160.491 248.412 159.744 248.088 158.964C241.894 144.099 233.565 131.277 224.008 121.873C214.044 112.08 203.656 106.901 193.974 106.901C193.459 106.901 192.945 106.918 192.438 106.943C187.099 107.258 182.698 109.532 179.7 113.516C172.908 122.546 175.673 137.601 176.296 140.514C176.504 142.315 177.658 152.556 178.422 163.52C179.817 183.488 178.787 189.132 178.413 190.443C158.684 210.395 150.09 232.845 151.394 261.03C152.681 288.974 148.869 309.739 148.205 313.084C146.777 316.636 139.769 335.202 142.717 351.369C143.97 358.274 147.881 371.587 159.938 383.189C172.568 395.34 190.254 401.971 212.508 402.892C214.26 402.967 216.045 403 217.822 403C230.46 403 243.305 401.241 256.001 397.763C269.661 394.028 282.49 388.459 294.131 381.231C306.927 373.288 318.012 363.478 327.08 352.075C337.052 339.543 344.542 325.11 349.341 309.175C360.883 270.898 358.791 234.679 354.996 211.034C350.72 184.36 341.802 158.466 331.14 141.767C322.421 128.098 315.023 117.508 307.267 110.229C299.487 102.926 291.341 98.9338 280.862 97.2822C279.708 97.0913 278.579 97 277.491 97Z" fill="#DEE1CF"/>
</svg>
