<svg width="500" height="500" viewBox="0 0 500 500" fill="none" xmlns="http://www.w3.org/2000/svg">
<rect width="500" height="500" fill="#DEE1CF"/>
<path d="M196.432 187.052C207.127 179.03 221.758 179.263 222.729 179.263C223.701 179.263 225.652 178.773 224.681 175.369C217.772 151.18 204.711 138.841 201.306 134.947C197.894 131.053 190.105 126.668 191.566 139.331C193.028 151.994 194.489 186.57 194.489 186.57C194.489 186.57 194.971 187.542 196.432 187.052Z" fill="#CFFE25"/>
<path d="M274.352 178.773C278.247 175.85 307.957 185.59 312.822 191.926C313.611 192.947 314.317 191.594 313.561 186.645C308.189 151.513 292.828 132.323 288.468 126.669C283.594 120.341 272.883 113.516 275.506 131.036C278.188 148.914 274.352 178.773 274.352 178.773Z" fill="#CFFE25"/>
<path d="M195.701 271.067C195.701 271.067 204.379 239.082 223.46 217.982C232.71 207.752 238.074 198.012 224.922 195.579C211.769 193.146 187.913 218.954 193.75 268.634C193.75 268.626 194.24 273.01 195.701 271.067Z" fill="#CFFE25"/>
<path d="M224.398 378.34C224.398 378.34 246.776 365.42 259.921 347.418C266.298 338.691 276.054 336.316 278.977 343.831C282.697 353.396 266.24 374.927 226.623 379.37C226.623 379.361 223.136 379.777 224.398 378.34Z" fill="#CFFE25"/>
<path d="M208.547 269.389C208.547 269.389 218.27 255.755 231.739 249.727C238.273 246.804 242.076 239.845 235.151 236.482C228.226 233.128 208.364 243.79 207.816 267.969C207.816 267.969 207.966 269.024 209.037 268.409" fill="#1A202C"/>
<path d="M273.422 294.325C273.422 294.325 302.252 285.498 308.928 273.259C309.31 272.561 312.341 268.875 315.745 262.057C316.302 260.945 319.2 260.953 320.62 262.057C325.004 265.47 324.888 271.839 325.004 273.259C325.975 284.95 303.091 304.43 273.381 296.625C273.381 296.625 272.086 295.911 273.323 294.616L273.422 294.325Z" fill="#CFFE25"/>
<path d="M284.939 304.804C284.939 304.804 304.734 308.258 313.021 302.412C313.495 302.08 315.687 300.469 320.121 297.115C320.843 296.567 323.534 296.625 323.816 298.842C324.298 302.653 322.72 306.572 322.271 307.536C318.585 315.457 298.341 320.846 284.084 306.282C284.084 306.282 283.594 305.402 284.781 304.953L284.939 304.804Z" fill="#CFFE25"/>
<path d="M184.832 268.053C184.832 268.053 181.427 254.825 173.339 246.43C169.42 242.361 168.515 235.926 174.369 235.245C180.223 234.573 191.69 248.315 185.737 267.164C185.737 267.164 185.355 267.936 184.74 267.164" fill="#1A202C"/>
<path d="M156.492 258.155L156.002 280.558C156.002 280.558 166.456 283.862 168.665 301.499C169.155 305.394 170.126 301.009 170.126 301.009C170.126 301.009 172.078 292.241 171.098 287.375C170.118 282.509 163.791 262.049 163.791 262.049L156.492 258.155Z" fill="#1A202C"/>
<path d="M156.251 251.587C156.251 251.587 174.76 261.327 170.865 295.903C170.865 295.903 170.624 270.826 156.01 258.645L156.251 251.587Z" fill="#CFFE25"/>
<path d="M149.434 363.593C149.434 363.593 161.607 371.382 167.452 367.006C173.298 362.63 172.326 355.314 172.326 355.314C172.326 355.314 160.635 346.546 160.153 343.142C159.664 339.729 161.125 336.814 165.028 335.834C168.922 334.863 185.969 335.345 191.815 339.247C197.66 343.15 188.402 348.987 188.402 348.987L179.152 354.343C179.152 354.343 175.258 356.294 178.662 363.593C182.075 370.9 199.114 379.179 217.622 375.766C217.622 375.766 251.6 371.905 266.081 347.767C269.004 342.901 276.552 341.68 276.311 349.718C276.046 358.478 248.063 375.525 236.38 378.448C224.688 381.371 196.448 387.698 174.527 368.218C174.527 368.218 167.469 376.738 153.826 371.872L149.434 363.593Z" fill="#1A202C"/>
<path d="M302.352 247.203C302.352 247.203 302.925 255.24 290.245 266.907C283.129 273.45 266.979 277.51 264.023 277.668C261.067 277.826 237.966 290.148 225.121 304.414C222.314 307.528 223.618 300.32 223.618 300.32C223.618 300.32 227.338 252.426 280.962 253.605C286.343 253.721 299.495 250.798 302.352 247.203Z" fill="#CFFE25"/>
<path d="M302.351 247.203C302.351 247.203 303.896 255.124 292.611 268.144C286.284 275.451 270.698 281.297 267.776 281.779C264.853 282.268 236.563 289.534 225.403 305.153C222.97 308.566 223.451 301.259 223.451 301.259C223.451 301.259 228.508 260.82 281.891 255.971C287.256 255.481 299.918 251.097 302.351 247.203Z" fill="#1A202C"/>
<path d="M277.491 102.846C278.263 102.846 279.085 102.912 279.949 103.045C298.457 105.968 308.197 116.679 326.216 144.928C344.235 173.176 363.715 241.357 343.745 307.586C324.489 371.473 264.446 397.305 217.822 397.305C216.111 397.305 214.417 397.272 212.748 397.205C165.51 395.254 151.385 366.524 148.463 350.457C145.54 334.389 153.818 314.909 153.818 314.909C153.818 314.909 158.692 292.506 157.231 260.853C155.77 229.2 167.918 209.264 183.038 194.135C187.913 189.26 182.067 139.589 182.067 139.589C182.067 139.589 176.221 113.781 192.778 112.802C193.177 112.777 193.576 112.768 193.974 112.768C210.332 112.768 230.543 132.082 242.699 161.261C245.132 167.107 247.083 171.001 247.083 175.385L260.967 174.655C260.967 174.655 261.058 174.663 261.216 174.663C262.071 174.663 264.861 174.314 264.861 169.78C264.861 164.425 264.861 129.849 264.861 129.849C264.861 129.849 261.756 102.846 277.491 102.846ZM277.491 97C272.567 97 268.299 98.8766 265.127 102.422C257.479 111 258.692 127.034 259.007 130.139V168.884L252.041 169.249C251.318 166.625 250.222 164.043 249.035 161.244C248.728 160.522 248.412 159.775 248.088 158.994C241.894 144.122 233.565 131.294 224.008 121.886C214.044 112.087 203.656 106.906 193.974 106.906C193.459 106.906 192.945 106.923 192.438 106.948C187.099 107.263 182.698 109.538 179.7 113.524C172.908 122.558 175.673 137.621 176.296 140.535C176.504 142.337 177.658 152.584 178.422 163.553C179.817 183.531 178.787 189.177 178.413 190.489C158.684 210.451 150.09 232.912 151.394 261.111C152.681 289.069 148.869 309.844 148.205 313.19C146.777 316.744 139.769 335.319 142.717 351.495C143.97 358.403 147.881 371.722 159.938 383.33C172.568 395.487 190.254 402.121 212.508 403.043C214.26 403.118 216.045 403.151 217.822 403.151C230.46 403.151 243.305 401.39 256.001 397.911C269.661 394.175 282.49 388.603 294.131 381.371C306.927 373.424 318.012 363.609 327.08 352.2C337.052 339.662 344.542 325.222 349.341 309.28C360.883 270.984 358.791 234.747 354.996 211.09C350.72 184.403 341.802 158.496 331.14 141.789C322.421 128.113 315.023 117.518 307.267 110.236C299.487 102.929 291.341 98.9347 280.862 97.2823C279.708 97.0913 278.579 97 277.491 97Z" fill="#1A202C"/>
</svg>
